# xmcd
#
# Track frame offsets:
#	150
#	24705
#	49229
#	64599
#	96243
#	119673
#	142013
#	164799
#	203682
#	221967
#	234533
#	254386
#	274886
#	297116
#	314357
#
# Disc length: 4371 seconds
#
# Revision: 1
# Processed by: cddbd v1.4PL0 Copyright (c) Steve Scherf et al.
# Submitted via: audiograbber 1.80
#
DISCID=f511110f
DTITLE=Various Artist - Sacramento Blues Too!
DYEAR=1900
DGENRE=
TTITLE0=Arbess Williams and Johnny Heartsman - I Just Wanna Party All Night
TTITLE1=Omar Sharriff - Hound Dog
TTITLE2=The Soul Prophets - A Lonely Man
TTITLE3=The Luminators - Commit A Crime
TTITLE4=Gayiel Von - Baby Please Dont Go
TTITLE5=Jimmy Pailer and The Blues Hearts - Bend Over Backwards
TTITLE6=Glenn Lane - I Talk Before I think
TTITLE7=The Bobby G Blues Experience - Red House
TTITLE8=The Ice Cream Men - Jump Black Cat
TTITLE9=Johnny "Guitar" Knox and His Blues Buddies - Honey Bee
TTITLE10=Blue Soul Soul Be It
TTITLE11=W.D. gospel Singers - Down Here Lord
TTITLE12=Sonny Boy Blues - Mama Said
TTITLE13=Whalin' Black and The Remains - (Some of) My Best Friends Are The Blues
TTITLE14=Catfish and The Crawdaddys - Crawdaddy Stomp
EXTD=
EXTT0=
EXTT1=
EXTT2=
EXTT3=
EXTT4=
EXTT5=
EXTT6=
EXTT7=
EXTT8=
EXTT9=
EXTT10=
EXTT11=
EXTT12=
EXTT13=
EXTT14=
PLAYORDER=
